<?xml version="1.0" standalone="no"?>
<!DOCTYPE svg PUBLIC "-//W3C//DTD SVG 20010904//EN"
 "http://www.w3.org/TR/2001/REC-SVG-20010904/DTD/svg10.dtd">
<svg version="1.0" xmlns="http://www.w3.org/2000/svg"
 width="225.000000pt" height="224.000000pt" viewBox="0 0 225.000000 224.000000"
 preserveAspectRatio="xMidYMid meet">

<g transform="translate(0.000000,224.000000) scale(0.100000,-0.100000)"
fill="#000000" stroke="none">
<path d="M1085 2051 c5 -16 2 -21 -12 -21 -11 0 -28 -7 -39 -15 -18 -14 -18
-14 4 -8 14 3 22 1 22 -7 0 -10 3 -10 15 0 8 6 19 9 24 6 5 -4 12 -2 16 3 3 6
12 8 20 4 8 -3 15 0 15 6 0 6 -7 11 -15 11 -8 0 -24 9 -36 21 l-21 21 7 -21z"/>
<path d="M1111 1964 c0 -11 3 -14 6 -6 3 7 2 16 -1 19 -3 4 -6 -2 -5 -13z"/>
<path d="M1020 1960 c0 -6 4 -9 9 -5 5 3 12 -2 14 -10 4 -12 5 -12 3 1 -1 19
-26 32 -26 14z"/>
<path d="M1129 1930 c-1 -5 -2 -14 -3 -19 -2 -20 -22 -30 -63 -33 -24 -2 -45
-9 -48 -15 -2 -7 -14 -13 -26 -13 -42 0 -136 -116 -195 -240 -9 -19 -26 -48
-38 -65 -11 -16 -31 -51 -42 -76 -12 -25 -32 -54 -45 -65 -13 -10 -32 -31 -41
-46 -17 -25 -10 -23 105 31 l122 57 18 50 c10 27 32 76 48 109 24 50 26 61 14
68 -23 12 -18 24 12 32 19 4 34 0 55 -15 24 -18 28 -18 28 -4 0 11 6 15 20 11
25 -7 44 22 25 38 -18 13 -31 65 -16 65 6 0 11 5 11 11 0 5 -4 7 -10 4 -5 -3
-10 1 -10 9 0 17 42 32 59 21 16 -10 13 -23 -6 -28 -14 -4 -12 -5 5 -6 24 -1
23 1 7 -77 -5 -21 -2 -34 9 -43 23 -19 36 -5 29 32 l-6 32 26 -18 c25 -16 27
-16 36 1 6 9 11 13 11 7 0 -5 5 -3 10 5 21 33 10 56 -45 96 -47 34 -54 43 -49
67 2 15 2 27 -1 27 -3 0 -6 -4 -6 -10z"/>
<path d="M1280 1768 c0 -15 -6 -29 -12 -31 -8 -4 -7 -6 3 -6 19 -1 33 39 19
53 -7 7 -10 1 -10 -16z"/>
<path d="M1298 1700 c-16 -10 -19 -44 -5 -67 4 -6 2 -15 -4 -19 -8 -4 -9 -3
-5 4 4 7 1 12 -8 12 -20 0 -11 -22 14 -38 17 -10 20 -10 20 3 0 8 4 15 10 15
6 0 8 -29 5 -75 -6 -75 -1 -86 24 -62 11 10 13 9 7 -1 -4 -7 -1 -15 8 -18 9
-3 16 -16 16 -28 0 -11 -4 -16 -8 -11 -10 14 -182 97 -182 87 1 -8 192 -102
209 -102 7 0 14 -7 18 -16 3 -8 12 -13 19 -10 8 3 14 1 14 -4 0 -6 3 -9 8 -8
4 1 23 -6 42 -15 22 -10 28 -15 15 -15 -56 3 -61 -1 -30 -22 34 -23 26 -27
-13 -6 -126 64 -256 120 -248 108 3 -6 82 -47 176 -93 l169 -82 7 -44 c3 -24
4 -55 1 -68 -3 -17 0 -24 7 -22 6 3 9 11 8 18 -2 8 0 11 3 7 4 -4 16 -3 26 3
16 8 19 22 19 83 0 70 -1 74 -25 80 -14 4 -25 11 -25 16 0 6 -5 10 -12 10 -14
0 -68 50 -68 63 0 16 -61 136 -76 148 -8 6 -14 18 -14 26 0 8 -20 40 -45 72
-25 31 -45 63 -45 69 0 14 -9 15 -32 2z m267 -398 c-3 -3 -11 0 -18 7 -9 10
-8 11 6 5 10 -3 15 -9 12 -12z m5 -32 c0 -5 -7 -7 -15 -4 -8 4 -15 8 -15 10 0
2 7 4 15 4 8 0 15 -4 15 -10z"/>
<path d="M1170 1670 c0 -6 7 -10 15 -10 8 0 15 2 15 4 0 2 -7 6 -15 10 -8 3
-15 1 -15 -4z"/>
<path d="M1000 1654 c8 -10 15 -20 16 -22 1 -2 4 1 7 5 3 5 -4 15 -16 23 -21
12 -21 12 -7 -6z"/>
<path d="M1207 1646 c-4 -10 1 -12 14 -9 23 6 24 9 5 16 -8 3 -17 0 -19 -7z"/>
<path d="M983 1620 c1 -11 5 -20 9 -20 11 0 10 28 -1 35 -6 3 -9 -4 -8 -15z"/>
<path d="M956 1614 c-4 -9 -4 -19 -1 -22 2 -3 7 3 11 12 4 9 4 19 1 22 -2 3
-7 -3 -11 -12z"/>
<path d="M946 1545 c4 -8 7 -15 9 -15 2 0 5 7 9 15 3 9 0 15 -9 15 -9 0 -12
-6 -9 -15z"/>
<path d="M1090 1556 c0 -3 9 -10 20 -16 11 -6 20 -8 20 -6 0 3 -9 10 -20 16
-11 6 -20 8 -20 6z"/>
<path d="M1151 1531 c-10 -6 -9 -10 5 -15 20 -8 25 -4 16 11 -4 7 -13 9 -21 4z"/>
<path d="M1295 1530 c3 -5 8 -10 11 -10 2 0 4 5 4 10 0 6 -5 10 -11 10 -5 0
-7 -4 -4 -10z"/>
<path d="M935 1510 c-3 -6 1 -7 9 -4 18 7 21 14 7 14 -6 0 -13 -4 -16 -10z"/>
<path d="M1745 1489 c-4 -12 -2 -26 4 -32 8 -8 11 -7 11 2 0 7 10 21 23 32
l22 18 -27 1 c-18 0 -29 -6 -33 -21z"/>
<path d="M899 1377 c-152 -75 -152 -76 -132 -127 3 -8 5 -19 4 -24 -2 -10 30
-35 46 -36 6 0 17 16 25 36 l12 35 23 -48 c12 -26 22 -56 23 -65 0 -10 9 -22
20 -28 11 -6 20 -18 20 -26 0 -8 5 -12 10 -9 6 3 10 16 10 28 0 15 3 18 11 10
5 -5 11 -33 11 -62 1 -28 5 -51 10 -51 5 0 6 6 2 13 -5 9 -4 9 6 0 32 -30 -49
-62 -159 -63 -30 0 -52 -2 -49 -5 6 -6 101 -25 147 -29 18 -2 36 -7 40 -12 3
-5 15 -9 26 -10 11 -1 33 -5 49 -9 25 -7 28 -6 23 9 -4 10 -7 137 -7 282 0
205 -3 264 -12 264 -7 -1 -79 -33 -159 -73z m41 -222 c0 -15 -2 -17 -9 -6 -7
11 -10 10 -14 -5 -3 -12 -5 -8 -6 12 0 17 2 34 6 37 9 10 23 -13 23 -38z"/>
<path d="M1733 1379 c-16 -16 7 -69 29 -69 22 0 24 18 3 26 -11 5 -12 11 -4
25 11 22 59 26 59 5 0 -8 6 -17 13 -19 12 -5 -18 -11 -37 -8 -5 1 -4 -5 4 -13
7 -9 18 -16 24 -16 13 0 47 66 38 75 -10 10 -118 5 -129 -6z"/>
<path d="M353 1360 c-13 -5 -23 -17 -23 -26 0 -12 -6 -15 -24 -10 -21 5 -25 2
-31 -25 -4 -18 -3 -35 3 -41 17 -17 42 -1 42 27 0 22 4 25 29 23 24 -2 35 -12
60 -56 21 -36 26 -52 16 -48 -16 6 -19 -19 -15 -106 2 -44 -6 -49 -20 -12 -7
17 -7 32 0 45 9 15 6 26 -11 51 -21 29 -23 30 -36 12 -12 -16 -11 -20 4 -26
14 -6 12 -7 -7 -5 -15 1 -25 8 -25 17 0 8 -9 17 -19 20 -11 3 -20 13 -22 22
-1 9 -7 24 -14 35 -9 15 -10 13 -7 -17 3 -19 1 -42 -4 -51 -10 -20 -40 -161
-35 -166 2 -2 19 28 37 67 19 38 39 70 45 70 11 0 48 -66 49 -90 1 -8 7 -14
15 -12 11 2 11 0 1 -11 -9 -12 -6 -17 18 -25 24 -8 30 -18 36 -51 6 -39 25
-58 25 -26 0 8 4 15 8 15 4 0 8 23 9 51 0 39 -3 49 -13 45 -20 -8 -19 112 1
138 8 11 15 33 15 49 0 16 4 26 10 22 6 -3 10 -18 10 -33 1 -27 1 -26 20 8 25
46 27 85 3 75 -10 -4 -33 -9 -50 -10 -27 -3 -33 0 -33 15 0 18 -25 51 -38 49
-4 0 -17 -4 -29 -9z"/>
<path d="M1435 1350 c-8 -14 13 -22 31 -12 14 8 14 10 -5 15 -11 3 -23 1 -26
-3z"/>
<path d="M648 1273 c-54 -22 -67 -32 -71 -52 l-5 -26 20 28 c44 61 52 16 8
-48 -16 -24 -30 -52 -30 -63 0 -42 13 -82 27 -82 8 0 11 -5 8 -10 -4 -7 -13
-7 -26 0 -13 7 -19 7 -19 0 0 -5 4 -10 8 -10 4 0 13 -42 19 -92 14 -108 20
-138 29 -147 4 -3 4 13 1 37 l-5 42 161 1 162 1 -55 18 c-30 10 -91 28 -134
40 -82 22 -150 70 -129 91 6 6 14 0 23 -16 9 -18 19 -24 29 -19 9 4 70 12 136
18 85 7 109 12 82 16 -21 3 -38 8 -37 13 1 23 -1 27 -11 27 -5 0 -7 -5 -4 -10
3 -6 -1 -13 -10 -17 -10 -3 -21 0 -26 8 -5 8 -9 10 -9 4 0 -5 -6 -1 -12 9 -10
18 -12 18 -24 2 -11 -16 -13 -16 -19 4 l-7 22 -12 -23 c-6 -13 -20 -25 -31
-26 -11 -2 -15 0 -8 3 7 3 9 18 6 38 -3 19 0 42 6 52 9 17 10 18 11 2 0 -39
19 -15 25 33 4 29 13 53 21 56 8 3 14 11 14 19 0 7 -6 11 -14 8 -11 -4 -13 3
-9 35 7 49 3 50 -89 14z"/>
<path d="M1746 1275 c-18 -18 -22 -80 -6 -90 6 -4 8 -11 5 -16 -4 -5 8 -12 24
-15 28 -6 30 -8 14 -19 -13 -10 -20 -10 -25 -2 -4 6 -7 -2 -6 -18 0 -17 -12
-77 -27 -135 -21 -81 -24 -109 -16 -123 7 -10 8 -24 3 -33 -8 -14 -10 -14 -22
1 -16 19 -8 141 14 225 8 30 12 57 10 59 -2 2 -15 -1 -28 -9 -14 -7 -31 -10
-39 -7 -21 8 -35 -5 -40 -38 -4 -32 -31 -45 -50 -26 -13 13 -41 15 -33 3 8
-13 -24 -53 -36 -46 -6 4 -9 1 -6 -7 2 -8 22 -18 44 -23 21 -5 40 -11 42 -12
2 -1 -4 -43 -12 -92 -20 -112 -52 -202 -73 -202 -12 0 -13 -3 -3 -15 17 -20 4
-35 -30 -35 -16 0 -32 -5 -36 -12 -5 -8 2 -9 24 -5 18 4 32 3 32 -1 0 -17 -41
-72 -50 -67 -6 3 -10 1 -10 -5 0 -6 -4 -8 -10 -5 -5 3 -10 2 -10 -4 0 -5 5
-13 10 -16 6 -4 7 -11 4 -17 -4 -7 -10 -5 -16 5 -5 9 -15 14 -23 11 -11 -4
-16 7 -21 45 -4 28 -10 51 -14 51 -12 0 -32 -53 -22 -59 16 -11 22 -40 8 -35
-19 7 -31 -16 -15 -28 12 -8 11 -9 -1 -5 -20 5 -22 53 -5 88 20 37 19 60 0 52
-9 -3 -14 -13 -12 -22 2 -9 -3 -29 -10 -44 -8 -15 -11 -32 -8 -37 3 -5 0 -12
-6 -16 -8 -4 -9 -3 -5 4 5 9 -10 12 -53 12 -33 0 -63 -5 -67 -11 -3 -6 1 -10
12 -9 32 4 40 0 24 -10 -12 -8 -10 -10 10 -11 69 -2 64 -15 -21 -56 -47 -22
-108 -48 -137 -57 -49 -17 -55 -17 -71 -2 -12 11 -37 16 -79 16 -60 0 -91 14
-93 43 0 7 -4 3 -9 -8 -8 -19 -9 -19 -9 3 -1 12 4 22 11 22 9 0 9 3 1 11 -6 6
-9 18 -6 26 4 11 9 9 20 -7 8 -11 19 -18 24 -15 5 4 9 1 9 -5 0 -6 5 -8 10 -5
6 3 10 1 10 -5 0 -7 6 -8 18 -2 9 4 85 7 167 7 143 -1 147 -1 85 10 -61 11
-64 17 -15 28 11 3 5 5 -15 6 -26 1 -31 4 -20 11 8 5 24 7 35 4 18 -4 18 -4 3
6 -24 15 -23 47 3 55 16 5 18 9 8 21 -10 12 -10 14 1 12 7 -2 15 3 18 11 3 10
-1 12 -17 8 -15 -4 -21 -2 -18 7 11 29 -55 76 -108 76 -19 0 -81 22 -104 37
-2 1 2 9 9 18 7 8 8 15 2 15 -5 0 -15 -7 -22 -15 -7 -8 -18 -15 -25 -15 -6 0
-17 -11 -25 -24 -11 -21 -16 -23 -37 -13 -22 10 -23 12 -9 23 9 6 16 17 16 25
-1 9 -4 8 -11 -4 -9 -15 -13 -16 -25 -6 -8 7 -14 8 -13 3 4 -20 -1 -45 -9 -40
-4 2 -8 -14 -8 -36 -1 -40 -1 -40 31 -34 20 4 36 2 40 -4 10 -17 -1 -23 -45
-24 -26 -1 -40 -6 -40 -15 0 -10 12 -12 49 -7 58 7 68 -2 41 -37 -11 -14 -20
-30 -20 -35 0 -6 -16 -16 -35 -22 -44 -14 -45 -37 -5 -75 16 -15 27 -31 25
-35 -4 -6 -44 -18 -77 -24 -3 -1 -10 -4 -13 -8 -4 -4 -21 6 -37 22 -16 17 -31
30 -32 30 -2 0 2 -15 8 -34 6 -21 15 -32 23 -29 7 3 13 0 13 -6 0 -20 -75 -12
-104 10 l-27 21 20 -33 c27 -44 26 -47 -6 -51 -25 -3 -22 -5 27 -32 61 -33
136 -40 165 -16 14 12 18 12 25 0 7 -11 13 -12 36 -1 25 11 29 10 49 -15 21
-27 23 -27 111 -21 76 6 198 36 287 72 13 5 17 2 17 -14 0 -15 7 -21 23 -22
43 -2 64 3 197 53 128 47 137 49 175 37 38 -12 39 -13 15 -20 -24 -7 -24 -7 6
-8 16 -1 36 -7 43 -13 11 -11 13 -10 7 5 -3 10 -6 23 -6 28 0 10 -72 86 -77
82 -2 -2 -9 -3 -15 -3 -31 1 24 20 61 22 23 1 41 3 41 6 0 10 -36 31 -52 32
-23 0 -24 33 -2 54 8 9 11 16 5 16 -7 0 -11 25 -12 63 0 34 -3 56 -6 49 -2 -6
-9 -9 -15 -6 -7 5 -9 -8 -6 -40 3 -25 2 -46 -3 -46 -13 0 -11 -18 4 -32 8 -7
12 -20 10 -29 -4 -14 -21 -18 -96 -22 -51 -2 -101 -8 -113 -11 -17 -6 -20 -4
-18 21 1 16 15 50 32 77 17 26 42 77 57 113 30 75 75 246 75 286 0 24 3 27 36
27 29 0 34 -3 30 -17 -3 -10 -12 -63 -21 -119 -14 -90 -14 -103 0 -130 8 -16
15 -26 16 -21 1 4 2 11 3 16 0 5 5 13 10 18 5 5 6 2 1 -6 -5 -9 -4 -12 3 -7 7
4 12 19 12 34 1 26 1 26 15 8 19 -25 19 -13 0 24 -12 24 -12 29 -1 33 22 9 26
-2 26 -65 0 -57 -1 -58 -25 -54 -13 3 -27 0 -31 -5 -3 -5 -2 -9 3 -8 24 4 32
-5 38 -42 4 -26 3 -45 -4 -52 -15 -15 -14 -27 3 -27 8 0 18 19 25 44 15 59 14
64 -6 69 -10 2 0 4 22 4 22 0 50 -4 62 -8 13 -5 25 -4 28 1 4 6 15 10 26 10
28 0 35 28 44 158 7 103 14 128 30 102 9 -14 61 -12 73 3 6 6 13 26 16 42 6
26 5 27 -3 8 -15 -34 -38 -28 -65 16 -14 22 -30 42 -36 46 -5 3 -10 18 -10 33
0 15 -5 34 -10 42 -7 11 -10 12 -10 2 0 -16 -30 -8 -74 20 -27 17 -28 19 -8
15 13 -3 21 -3 18 0 -3 4 1 17 10 31 9 13 11 21 5 18 -17 -11 -13 3 10 35 11
16 19 39 17 52 -3 19 -10 22 -49 25 -33 2 -51 -2 -63 -13z m68 -12 c4 -5 13
-8 19 -8 5 0 12 -6 15 -12 6 -20 -16 -15 -38 7 -11 11 -16 20 -12 20 5 0 12
-3 16 -7z m-24 -37 c0 -3 -4 -8 -10 -11 -5 -3 -10 -1 -10 4 0 6 5 11 10 11 6
0 10 -2 10 -4z m25 -6 c3 -5 1 -10 -4 -10 -6 0 -11 5 -11 10 0 6 2 10 4 10 3
0 8 -4 11 -10z m-21 -137 c-4 -16 -13 -41 -21 -58 l-14 -30 6 29 c3 15 9 41
12 57 3 16 10 29 14 29 5 0 6 -12 3 -27z m-888 -408 c10 -8 38 -15 62 -15 23
0 54 -8 68 -17 22 -14 25 -21 18 -52 -4 -20 -7 -45 -6 -56 0 -14 -5 -10 -18
15 -10 19 -16 39 -13 46 2 6 -4 14 -13 18 -23 9 -28 2 -15 -22 8 -16 7 -21 -4
-26 -8 -3 -15 -1 -15 4 0 6 -9 5 -20 -2 -27 -17 -52 -1 -56 36 -4 41 -14 45
-15 5 -1 -19 -4 -45 -8 -59 -7 -24 -8 -23 -19 13 -6 21 -8 45 -5 53 3 8 0 14
-6 14 -6 0 -11 -10 -11 -22 0 -12 -3 -19 -6 -16 -3 4 -6 10 -5 15 0 4 -10 13
-22 20 -18 9 -25 8 -39 -3 -11 -10 -18 -12 -23 -5 -3 6 0 11 8 11 8 0 20 7 27
15 10 12 10 15 0 15 -8 0 -10 3 -7 6 4 4 13 1 21 -5 12 -10 20 -10 38 0 13 7
24 12 26 11 1 -1 12 -2 25 -1 21 1 21 1 -3 9 -22 7 -22 8 -4 9 11 1 29 -6 40
-14z m81 -141 c2 -6 -7 -22 -20 -35 -31 -30 -22 -71 14 -64 12 2 19 1 15 -2
-10 -10 -86 -10 -113 -1 -13 4 -23 3 -23 -2 0 -5 -13 -1 -29 8 -26 14 -28 18
-14 26 11 6 18 5 21 -2 2 -7 16 -12 30 -11 22 0 24 2 9 8 -17 6 -17 8 -3 20
13 11 19 11 33 0 11 -10 14 -10 9 -1 -4 7 -2 12 8 12 8 0 18 4 21 10 3 6 -1 7
-10 4 -18 -7 -46 13 -39 29 5 15 86 15 91 1z m53 -36 c0 -5 -7 -8 -16 -8 -10
0 -14 -6 -10 -15 4 -10 -1 -15 -14 -15 -11 0 -20 5 -20 11 0 5 4 8 8 5 4 -2
14 9 21 26 10 22 16 27 22 17 5 -8 9 -17 9 -21z m240 -139 c42 -34 44 -55 4
-45 -17 5 -26 1 -34 -14 -18 -34 -30 -22 -30 28 0 43 5 62 17 62 2 0 22 -14
43 -31z m-88 -24 c-1 -5 -10 -10 -19 -10 -20 0 -30 -30 -13 -40 6 -4 20 1 31
11 18 16 19 16 19 -5 0 -31 -45 -50 -67 -29 -19 20 -20 67 -2 79 18 12 55 7
51 -6z m-106 -53 c5 -24 10 -28 30 -24 32 6 31 -16 -2 -24 -30 -8 -40 0 -49
44 -4 21 -3 32 4 32 7 0 14 -13 17 -28z m-37 4 c7 -8 11 -27 9 -43 -2 -21 -9
-29 -27 -31 -13 -2 -28 2 -32 10 -29 45 17 104 50 64z m-69 -21 c0 -9 -6 -12
-15 -9 -10 4 -15 0 -15 -16 0 -17 4 -20 21 -15 16 5 20 3 17 -6 -3 -8 -16 -14
-29 -14 -25 0 -37 30 -25 61 7 19 46 18 46 -1z"/>
<path d="M1012 253 c5 -25 28 -28 28 -4 0 12 -6 21 -16 21 -9 0 -14 -7 -12
-17z"/>
<path d="M1170 1185 c1 -14 20 -37 54 -63 30 -23 28 -29 -5 -12 -24 13 -25 2
-1 -16 25 -20 -2 -35 -40 -22 -15 6 -36 7 -46 3 -14 -6 -12 -10 13 -21 40 -17
60 -17 79 1 13 14 19 13 51 -10 52 -35 95 -41 141 -19 20 10 32 20 26 22 -7 2
-10 8 -7 12 3 5 12 7 20 3 29 -11 71 48 59 82 -8 19 -34 20 -34 0 0 -11 -5
-12 -26 -5 -35 14 -104 13 -104 -1 0 -8 -5 -7 -15 1 -12 10 -19 10 -27 2 -9
-9 -8 -12 5 -12 9 0 21 -9 27 -20 6 -11 17 -20 25 -20 9 0 14 -9 13 -24 -1
-15 -7 -22 -15 -19 -7 3 -10 9 -7 14 3 5 1 9 -4 9 -16 0 -22 -13 -11 -27 6 -7
8 -13 5 -13 -11 0 -66 30 -66 36 0 2 9 0 20 -6 12 -6 20 -7 20 -1 0 5 3 18 6
28 4 14 4 15 -4 4 -11 -16 -32 -7 -32 15 0 8 -9 14 -20 14 -11 0 -20 6 -20 14
0 8 -8 13 -17 12 -12 -1 -17 5 -15 18 3 14 -1 17 -14 12 -10 -4 -21 -1 -26 6
-4 7 -8 9 -8 3z m240 -99 c0 -3 -4 -8 -10 -11 -5 -3 -10 -1 -10 4 0 6 5 11 10
11 6 0 10 -2 10 -4z"/>
<path d="M1941 1073 c-2 -25 11 -41 30 -36 21 6 23 11 10 31 -6 11 -10 10 -16
-5 -7 -17 -8 -17 -15 2 -5 11 -9 15 -9 8z"/>
<path d="M1405 1000 c4 -6 11 -8 16 -5 14 9 11 15 -7 15 -8 0 -12 -5 -9 -10z"/>
<path d="M497 989 c-31 -18 -57 -95 -47 -136 1 -5 8 6 15 22 10 21 14 24 15
12 0 -37 25 -9 30 35 3 25 12 53 19 62 11 13 11 16 0 16 -8 0 -22 -5 -32 -11z
m-7 -64 c0 -8 -4 -15 -10 -15 -5 0 -7 7 -4 15 4 8 8 15 10 15 2 0 4 -7 4 -15z"/>
<path d="M305 970 c10 -11 20 -20 23 -20 3 0 -3 9 -13 20 -10 11 -20 20 -23
20 -3 0 3 -9 13 -20z"/>
<path d="M401 838 c-6 -15 -5 -28 3 -37 9 -11 12 -9 16 15 6 28 6 29 18 7 7
-12 8 -23 3 -25 -6 -2 -12 -16 -15 -32 -3 -16 -10 -34 -16 -40 -9 -8 -11 -7
-9 4 2 8 -1 25 -5 38 -7 22 -9 23 -27 6 -10 -9 -19 -14 -19 -10 0 4 -7 1 -15
-8 -22 -21 -20 -28 30 -88 25 -30 45 -60 45 -66 0 -6 9 -16 19 -22 27 -14 36
-13 21 5 -6 8 -9 19 -5 25 3 5 3 10 -2 10 -4 0 -9 27 -10 60 -1 37 2 58 7 55
6 -4 10 -14 10 -23 0 -14 2 -15 9 -2 6 8 7 18 5 22 -3 5 6 7 20 4 31 -6 32 -3
7 38 -14 22 -17 36 -11 46 15 23 12 32 -7 22 -11 -7 -21 -5 -31 4 -19 20 -31
17 -41 -8z"/>
<path d="M1155 799 c-4 -6 -5 -12 -2 -15 2 -3 7 2 10 11 7 17 1 20 -8 4z"/>
<path d="M841 784 c0 -11 3 -14 6 -6 3 7 2 16 -1 19 -3 4 -6 -2 -5 -13z"/>
<path d="M861 784 c0 -11 3 -14 6 -6 3 7 2 16 -1 19 -3 4 -6 -2 -5 -13z"/>
<path d="M931 784 c0 -11 3 -14 6 -6 3 7 2 16 -1 19 -3 4 -6 -2 -5 -13z"/>
<path d="M986 787 c3 -10 9 -15 12 -12 3 3 0 11 -7 18 -10 9 -11 8 -5 -6z"/>
<path d="M1101 784 c0 -11 3 -14 6 -6 3 7 2 16 -1 19 -3 4 -6 -2 -5 -13z"/>
<path d="M1191 784 c0 -11 3 -14 6 -6 3 7 2 16 -1 19 -3 4 -6 -2 -5 -13z"/>
<path d="M1211 784 c0 -11 3 -14 6 -6 3 7 2 16 -1 19 -3 4 -6 -2 -5 -13z"/>
<path d="M1321 784 c0 -11 3 -14 6 -6 3 7 2 16 -1 19 -3 4 -6 -2 -5 -13z"/>
<path d="M623 739 c-6 -6 -9 -19 -6 -28 4 -13 3 -14 -5 -2 -9 12 -13 12 -26 2
-23 -19 -28 -45 -16 -77 l11 -29 21 25 c11 14 17 19 13 12 -14 -26 -23 -72
-15 -72 10 0 30 55 31 89 1 21 5 17 26 -27 28 -60 43 -65 18 -6 -9 22 -18 44
-19 49 -2 6 -6 17 -9 25 -3 8 -7 23 -9 33 -2 14 -6 15 -15 6z"/>
<path d="M511 691 c-12 -8 -10 -20 15 -77 16 -37 31 -72 32 -76 2 -4 -3 -8
-11 -8 -9 0 -18 -6 -20 -12 -4 -8 -6 -7 -6 4 -1 11 -7 15 -21 11 -11 -3 -18
-9 -15 -13 2 -4 6 -23 9 -43 3 -28 1 -35 -10 -30 -8 3 -14 -1 -14 -11 0 -8 26
-33 58 -55 l59 -39 -2 33 c0 18 2 33 5 33 21 -2 27 6 25 32 -1 16 2 27 6 24
18 -11 17 15 -1 31 -11 10 -20 24 -20 32 0 7 -4 13 -9 13 -16 0 -62 121 -51
135 17 20 -4 32 -29 16z m33 -207 c9 -3 16 -16 15 -28 0 -14 -2 -16 -6 -6 -3
8 -12 21 -21 28 -17 13 -13 15 12 6z m16 -74 c0 -14 -14 -12 -28 2 -19 19 -14
30 8 18 11 -6 20 -15 20 -20z"/>
<path d="M1070 668 c0 -19 18 -43 25 -36 9 9 -4 48 -16 48 -5 0 -9 -6 -9 -12z"/>
<path d="M1446 637 c3 -10 9 -15 12 -12 3 3 0 11 -7 18 -10 9 -11 8 -5 -6z"/>
<path d="M1135 610 c-3 -5 1 -10 9 -10 9 0 16 5 16 10 0 6 -4 10 -9 10 -6 0
-13 -4 -16 -10z"/>
<path d="M1787 603 c-12 -11 -8 -25 5 -17 8 5 9 2 5 -9 -4 -11 -1 -17 8 -17
18 0 20 -20 3 -21 -24 -2 -43 3 -50 14 -6 9 -8 9 -8 0 0 -6 5 -15 10 -18 6 -4
7 -11 4 -17 -5 -7 0 -9 14 -6 23 6 22 -2 -5 -34 -13 -15 -13 -16 5 -11 11 3
21 -1 25 -10 4 -10 -1 -13 -17 -10 -20 4 -22 1 -21 -34 1 -21 -3 -53 -8 -71
-9 -35 7 -62 32 -54 7 2 17 -2 22 -9 8 -11 12 -10 21 6 17 28 20 55 8 70 -5 6
-6 15 -2 20 4 4 -2 3 -14 -3 -12 -7 -26 -7 -35 -1 -11 7 -11 9 4 9 22 0 22 14
0 36 -16 16 -16 16 4 10 12 -4 24 -2 28 5 6 8 10 8 15 -2 5 -7 10 19 12 59 2
59 0 71 -12 69 -8 -1 -16 5 -16 13 -1 8 -2 21 -3 28 -1 13 -23 17 -34 5z m18
-253 c3 -5 -1 -10 -9 -10 -9 0 -16 5 -16 10 0 6 4 10 9 10 6 0 13 -4 16 -10z
m31 -19 c-4 -6 -13 -11 -19 -11 -8 0 -7 3 2 9 8 5 10 14 6 22 -6 11 -5 11 5 2
7 -6 9 -16 6 -22z"/>
<path d="M655 461 c3 -5 -1 -11 -7 -14 -9 -3 -6 -11 9 -28 14 -16 20 -32 17
-46 -3 -11 -1 -24 5 -27 6 -4 11 0 11 8 0 10 6 13 15 10 23 -9 18 4 -14 39
-21 21 -27 35 -20 43 6 8 5 14 -6 18 -9 3 -14 2 -10 -3z"/>
<path d="M640 369 c0 -5 5 -7 10 -4 6 3 10 8 10 11 0 2 -4 4 -10 4 -5 0 -10
-5 -10 -11z"/>
<path d="M1756 238 c13 -20 14 -40 3 -59 -7 -14 -4 -21 12 -30 16 -8 20 -8 14
1 -4 7 1 13 14 17 25 6 28 21 4 19 -12 -1 -18 6 -17 20 0 12 -8 27 -19 33 -15
10 -18 10 -11 -1z"/>
<path d="M1651 218 c7 -14 6 -16 -5 -12 -9 3 -22 -5 -32 -21 -17 -26 -17 -28
1 -41 43 -31 91 -10 93 40 1 38 -10 51 -45 51 -18 1 -20 -2 -12 -17z m39 2 c0
-5 -4 -10 -10 -10 -5 0 -10 5 -10 10 0 6 5 10 10 10 6 0 10 -4 10 -10z"/>
</g>
</svg>
